<svg width="41" height="41" viewBox="0 0 41 41" fill="none" xmlns="http://www.w3.org/2000/svg">
  <path d="M37.5324 16.8707C37.9808 15.5241 38.1363 14.0974 37.9886 12.6859C37.8409 11.2744 37.3934 9.91076 36.676 8.68622C35.6126 6.83404 33.9882 5.3676 32.0373 4.4985C30.0864 3.62941 27.9098 3.40259 25.8215 3.85078C24.8796 2.7893 23.7219 1.94125 22.4257 1.36341C21.1295 0.785575 19.7249 0.491269 18.3058 0.500197C16.1708 0.495044 14.0893 1.16803 12.3614 2.42214C10.6335 3.67624 9.34853 5.44666 8.6917 7.47815C7.30085 7.76286 5.98686 8.3414 4.8377 9.17505C3.68854 10.0087 2.73073 11.0782 2.02839 12.312C0.956464 14.1591 0.498905 16.2988 0.721698 18.4228C0.944492 20.5467 1.83612 22.5449 3.268 24.1293C2.81966 25.4759 2.66413 26.9026 2.81182 28.3141C2.95951 29.7256 3.40701 31.0892 4.12437 32.3138C5.18791 34.1659 6.8123 35.6322 8.76321 36.5013C10.7141 37.3704 12.8907 37.5973 14.9789 37.1492C15.9208 38.2107 17.0786 39.0587 18.3747 39.6366C19.6709 40.2144 21.0755 40.5087 22.4946 40.4998C24.6307 40.5054 26.7133 39.8321 28.4418 38.5772C30.1704 37.3223 31.4556 35.5506 32.1119 33.5179C33.5027 33.2332 34.8167 32.6547 35.9659 31.821C37.115 30.9874 38.0728 29.9178 38.7752 28.684C39.8458 26.8371 40.3023 24.6979 40.0789 22.5748C39.8556 20.4517 38.9639 18.4544 37.5324 16.8707ZM22.4978 37.8849C20.7443 37.8874 19.0459 37.2733 17.6994 36.1501C17.7601 36.117 17.8666 36.0586 17.936 36.0161L25.9004 31.4156C26.1003 31.3019 26.2663 31.137 26.3813 30.9378C26.4964 30.7386 26.5563 30.5124 26.5549 30.2825V19.0542L29.9213 20.998C29.9389 21.0068 29.9541 21.0198 29.9656 21.0359C29.977 21.052 29.9842 21.0707 29.9867 21.0902V30.3889C29.9842 32.375 29.1946 34.2791 27.7909 35.6841C26.3872 37.0892 24.4838 37.8806 22.4978 37.8849ZM6.39227 31.0064C5.51397 29.5047 5.19742 27.7716 5.49804 26.0923C5.55718 26.1202 5.66048 26.1746 5.73461 26.2136L13.699 30.8142C13.8975 30.928 14.1233 30.9875 14.3532 30.9875C14.583 30.9875 14.8088 30.928 15.0073 30.8142L24.731 25.1224V28.9903C24.7321 29.0109 24.7283 29.0317 24.7199 29.0509C24.7115 29.0702 24.6988 29.0874 24.6829 29.1012L16.6317 33.7497C14.9096 34.7416 12.8643 35.0097 10.9447 34.4954C9.02506 33.9811 7.38785 32.7263 6.39227 31.0064ZM4.29707 13.6194C5.17156 12.0998 6.55279 10.9364 8.19885 10.3327C8.19885 10.4013 8.19491 10.5228 8.19491 10.6071V19.808C8.19351 20.0378 8.25334 20.2638 8.36823 20.4629C8.48312 20.6619 8.64893 20.8267 8.84863 20.9404L18.5723 26.6282L15.206 28.5741C15.1894 28.5851 15.1703 28.5921 15.1505 28.5953C15.1307 28.5984 15.1104 28.5975 15.0911 28.5926L7.04532 23.9434C5.16375 22.9524 3.79597 21.2668 3.18671 19.2801C2.57746 17.2934 2.76132 15.1563 3.69098 13.3006C3.87458 13.0038 4.07347 12.7171 4.29707 12.4489L4.29707 13.6194ZM20.0522 19.9981L17.6661 18.5934L20.1245 17.0887L22.7447 18.4523V21.3948L20.0522 19.9981ZM26.4055 10.8222C28.1577 11.8364 29.476 13.4636 30.1211 15.3766C30.7663 17.2896 30.6954 19.3535 29.9203 21.2184L29.9203 21.2184L29.9203 21.2184C29.9084 21.2489 29.8903 21.2755 29.8678 21.2966C29.8452 21.3177 29.8187 21.3328 29.7897 21.3409L27.2884 22.6666L24.3283 20.9347V16.9595C24.3294 16.9409 24.3357 16.9229 24.3463 16.9072L24.3463 16.9072C24.3463 16.9072 24.3463 16.9072 24.3463 16.9072C24.3568 16.8916 24.3713 16.8786 24.3879 16.8693L32.3991 12.2679C32.4109 12.2614 32.4236 12.2575 32.4368 12.2564C32.45 12.2553 32.4632 12.257 32.4753 12.2613C32.4875 12.2656 32.4983 12.2724 32.5073 12.2813C32.5162 12.2901 32.5231 12.301 32.5274 12.3132C33.0621 14.7445 32.5356 17.3139 31.0701 19.3028C29.6045 21.2917 27.3534 22.5404 24.8686 22.7426C24.8686 22.7426 24.7973 22.7491 24.731 22.7491L15.0083 17.0612L18.4121 15.1173C18.4288 15.1058 18.4483 15.0986 18.4686 15.0959C18.4889 15.0933 18.5096 15.0954 18.5289 15.1021L26.4055 19.7433C26.6233 19.8697 26.8644 19.9472 27.1143 19.9717C27.3643 19.9963 27.6176 19.9673 27.8534 19.8864C28.0892 19.8055 28.3015 19.6748 28.4729 19.5041C28.6442 19.3334 28.7702 19.1272 28.8406 18.9011C28.9109 18.6751 28.9236 18.4362 28.8776 18.2047C28.8316 17.9732 28.7283 17.7561 28.5772 17.5729C28.426 17.3897 28.2316 17.2459 28.0116 17.1538C27.7915 17.0617 27.5521 17.0237 27.3143 17.0428L20.5338 12.9287C20.5151 12.9182 20.5009 12.9019 20.4933 12.8823C20.4856 12.8626 20.4851 12.8409 20.4918 12.8209L20.4918 12.8209L20.4918 12.8209C20.4918 12.8209 20.4918 12.8209 20.4918 12.8209C20.4984 12.8009 20.5118 12.784 20.5301 12.7728C20.5484 12.7616 20.5705 12.7567 20.5925 12.7591C22.1639 12.8066 23.6739 13.3564 24.9067 14.3328C26.1394 15.3091 27.0323 16.6598 27.4503 18.1759C27.5309 18.3445 27.5951 18.5199 27.6415 18.7C27.6844 18.8729 27.7244 19.0459 27.7616 19.2195C27.7988 19.3932 27.8251 19.5343 27.8463 19.6433C27.8675 19.7523 27.8836 19.8307 27.8942 19.8783L26.4055 10.8222ZM6.8013 23.9434C6.76252 23.9216 6.73286 23.8892 6.71749 23.8508C6.70212 23.8123 6.70193 23.7702 6.71693 23.7316L6.71693 23.7316L6.71693 23.7316C6.71693 23.7316 6.71693 23.7316 6.71693 23.7316C6.73193 23.6929 6.76133 23.6603 6.7999 23.6382C6.83847 23.616 6.88328 23.6056 6.92835 23.6084L14.3333 19.2762C14.3503 19.2667 14.3699 19.2624 14.3896 19.2637C14.4094 19.265 14.4283 19.272 14.444 19.2837L14.444 19.2837L14.444 19.2837C14.444 19.2837 14.444 19.2837 14.444 19.2837C14.4597 19.2953 14.4716 19.3113 14.4782 19.3296C14.4849 19.348 14.4859 19.3679 14.4813 19.3867L13.8566 21.5761C13.8353 21.6523 13.8353 21.7328 13.8566 21.8089C13.8779 21.8851 13.9196 21.9545 13.9773 22.0099C14.035 22.0653 14.1064 22.1045 14.1841 22.1234C14.2618 22.1422 14.343 22.1398 14.4196 22.1166L16.0922 21.6075C16.1113 21.602 16.1314 21.6009 16.1511 21.6044C16.1708 21.6079 16.1894 21.6159 16.2052 21.6278L16.2052 21.6278L16.2052 21.6278C16.2052 21.6278 16.2052 21.6278 16.2052 21.6278C16.221 21.6398 16.2335 21.6553 16.2418 21.6731C16.2502 21.6908 16.2539 21.7102 16.2528 21.7297L15.9308 26.0278C15.9279 26.0473 15.9205 26.0658 15.9092 26.0818C15.8979 26.0977 15.8831 26.1107 15.866 26.1196L6.8013 23.9434ZM31.5416 27.0998L23.4611 22.4472C23.4441 22.4377 23.4302 22.4236 23.4209 22.4067C23.4117 22.3898 23.4075 22.3706 23.4089 22.3515L23.4089 22.3515L23.4089 22.3515C23.4089 22.3515 23.4089 22.3515 23.4089 22.3515C23.4102 22.3324 23.4169 22.3141 23.4282 22.2986C23.4395 22.2831 23.4549 22.271 23.4729 22.2635L25.1454 21.7543C25.2221 21.7312 25.3033 21.7288 25.381 21.7476C25.4587 21.7665 25.5301 21.8057 25.5878 21.8611C25.6455 21.9165 25.6872 21.9859 25.7085 22.0621C25.7298 22.1382 25.7298 22.2187 25.7085 22.2949L25.0838 24.4843C25.0792 24.5031 25.0802 24.5229 25.0868 24.5413C25.0935 24.5597 25.1054 24.5757 25.1211 24.5873L25.1211 24.5873L25.1211 24.5873C25.1211 24.5873 25.1211 24.5873 25.1211 24.5873C25.1368 24.599 25.1557 24.606 25.1755 24.6073C25.1952 24.6086 25.2148 24.6043 25.2318 24.5948L32.6367 20.2626C32.6818 20.2654 32.7266 20.2849 32.7652 20.3183C32.8038 20.3516 32.8332 20.3969 32.8486 20.4479C33.7138 22.7201 33.5506 25.2569 32.3981 27.4121C31.2455 29.5673 29.2075 31.1562 26.8122 31.7568C26.7904 31.7626 26.7677 31.7644 26.7452 31.7622C26.7228 31.76 26.701 31.7537 26.6812 31.7438L24.1799 30.4181L24.1799 30.4181L24.1799 30.4181C24.1799 30.4181 24.1799 30.4181 24.1799 30.4181C24.1614 30.4079 24.1461 30.3931 24.1354 30.3751C24.1247 30.3571 24.1191 30.3366 24.1191 30.3157V26.3405L31.5416 27.0998ZM15.0083 14.3289L10.8754 12.0623C10.8583 12.0528 10.8444 12.0387 10.8352 12.0218C10.8259 12.0049 10.8217 11.9857 10.8231 11.9666L10.8231 11.9666L10.8231 11.9666C10.8231 11.9666 10.8231 11.9666 10.8231 11.9666C10.8244 11.9475 10.8311 11.9292 10.8424 11.9137C10.8537 11.8982 10.8691 11.8861 10.8871 11.8786L12.5596 11.3695C12.6363 11.3463 12.7175 11.3439 12.7952 11.3628C12.8729 11.3816 12.9443 11.4208 13.002 11.4762C13.0597 11.5316 13.1014 11.601 13.1227 11.6772C13.144 11.7533 13.144 11.8338 13.1227 11.91L12.498 14.0994C12.4934 14.1182 12.4944 14.138 12.5011 14.1564C12.5077 14.1748 12.5196 14.1908 12.5353 14.2024L12.5353 14.2024L12.5353 14.2024C12.5353 14.2024 12.5353 14.2024 12.5353 14.2024C12.551 14.2141 12.5699 14.2211 12.5897 14.2224C12.6094 14.2237 12.629 14.2194 12.646 14.2099L20.0509 9.87771C20.096 9.88053 20.1408 9.9 20.1794 9.93337C20.218 9.96674 20.2474 10.0121 20.2628 10.0631C21.128 12.3353 20.9648 14.8721 19.8123 17.0273C18.6597 19.1825 16.6217 20.7714 14.2264 21.372C14.2046 21.3778 14.1819 21.3796 14.1594 21.3774C14.137 21.3752 14.1152 21.3689 14.0954 21.359L11.5941 20.0333L11.5941 20.0333L11.5941 20.0333C11.5941 20.0333 11.5941 20.0333 11.5941 20.0333C11.5756 20.0231 11.5603 20.0083 11.5496 19.9903C11.5389 19.9723 11.5333 19.9518 11.5333 19.9309V15.9557L15.0083 14.3289Z" fill="currentColor"/>
</svg>
